<?xml version="1.0" encoding="utf-8"?>
<!-- Generator: Adobe Illustrator 13.0.0, SVG Export Plug-In . SVG Version: 6.00 Build 14948)  -->
<!DOCTYPE svg PUBLIC "-//W3C//DTD SVG 1.1//EN" "http://www.w3.org/Graphics/SVG/1.1/DTD/svg11.dtd">
<svg version="1.1" id="Layer_2" xmlns="http://www.w3.org/2000/svg" xmlns:xlink="http://www.w3.org/1999/xlink" x="0px" y="0px"
	 width="45px" height="45px" viewBox="0 0 45 45" enable-background="new 0 0 45 45" xml:space="preserve">
<rect y="0" fill="#D18B47" width="45" height="45"/>
<g>
	<g>
		<path stroke="#FFFFFF" d="M41.688,26.421V19.5h-13.44c-1.741-0.214-3.585-0.333-5.498-0.333s-3.757,0.118-5.498,0.333H3.75v7.561
			h0.018c0.188,4.213,8.607,7.607,18.982,7.607c10.493,0,19-3.471,19-7.75C41.75,26.75,41.714,26.586,41.688,26.421z"/>
		<ellipse stroke="#FFFFFF" cx="22.75" cy="19.5" rx="19" ry="7.75"/>
	</g>
	<g>
		<path stroke="#FFFFFF" d="M41.688,19.145v-6.921h-13.44c-1.741-0.214-3.585-0.333-5.498-0.333s-3.757,0.118-5.498,0.333H3.75
			v7.561h0.018c0.188,4.213,8.607,7.607,18.982,7.607c10.493,0,19-3.471,19-7.75C41.75,19.474,41.714,19.31,41.688,19.145z"/>
		<ellipse stroke="#FFFFFF" cx="22.75" cy="12.224" rx="19" ry="7.75"/>
	</g>
</g>
</svg>
